<svg width="1540" height="1540" viewBox="0 0 1540 1540" fill="none" xmlns="http://www.w3.org/2000/svg">
<g clip-path="url(#clip0_16_1081)">
<mask id="mask0_16_1081" style="mask-type:luminance" maskUnits="userSpaceOnUse" x="29" y="59" width="1483" height="1482">
<path d="M29.9818 59.9477H1511.46V1540H29.9818V59.9477Z" fill="white"/>
</mask>
<g mask="url(#mask0_16_1081)">
<path fill-rule="evenodd" clip-rule="evenodd" d="M770.722 59.9477C1179.83 59.9477 1511.46 391.577 1511.46 800.688C1511.46 1209.8 1179.83 1541.43 770.722 1541.43C361.611 1541.43 29.9818 1209.8 29.9818 800.688C29.9818 391.577 361.611 59.9477 770.722 59.9477Z" fill="#006999"/>
</g>
<path fill-rule="evenodd" clip-rule="evenodd" d="M752.723 86.4004C1109.91 97.8863 1381.97 406.031 1360.35 774.7C1338.71 1143.29 1031.61 1432.76 674.344 1421.29C317.096 1409.73 45.0129 1101.66 66.637 732.992C88.2773 364.403 395.459 74.9146 752.723 86.4004Z" fill="#0399DE"/>
<mask id="mask1_16_1081" style="mask-type:luminance" maskUnits="userSpaceOnUse" x="131" y="82" width="1381" height="1459">
<path d="M131.413 82.1333H1511.46V1540H131.413V82.1333Z" fill="white"/>
</mask>
<g mask="url(#mask1_16_1081)">
<path fill-rule="evenodd" clip-rule="evenodd" d="M760.872 1541.28C748.488 1455.51 662.28 1457.51 615.166 1432.25C601.755 1425.06 589.981 1417.96 579.537 1410.99C610.353 1416.69 641.972 1420.25 674.344 1421.29C869.539 1427.58 1049.75 1343.95 1176.64 1206.77C1180.35 1206.62 1183.97 1206.4 1187.61 1206.25C1265.01 1202.77 1267.53 1234.55 1206.94 1287.58C1108.27 1373.87 1056.86 1345.37 1031.01 1494.33C950.052 1524.76 862.352 1541.43 770.722 1541.43C767.466 1541.43 764.193 1541.36 760.872 1541.28ZM135.392 469.507C142.643 441.146 152.268 409.736 164.94 374.316C264.575 233.069 412.351 128.173 584.414 83.577C584.206 90.9241 583.676 97.6616 582.794 103.95C388.353 150.92 223.829 287.29 135.392 469.507ZM1068.57 122.318C1329.31 236.983 1511.46 497.516 1511.46 800.688C1511.46 827.285 1510.05 853.577 1507.31 879.516C1411.6 806.687 1329.02 539.209 1329.02 437.665C1329.02 355.066 1297.98 364.547 1262.64 382.85C1211.31 300.172 1142.12 230.39 1060.19 179.362C1057.31 156.615 1060.87 135.44 1068.57 122.318Z" fill="#519C00"/>
</g>
<path fill-rule="evenodd" clip-rule="evenodd" d="M579.537 1410.99C412.784 1299.21 605.974 1213.14 526.487 1172.61C508.489 1163.44 475.09 1184.24 365.83 1119.58C325.02 1095.5 355.531 1052.85 305.241 1029.28C205.013 982.392 165.229 1031.21 156.647 897.066C144.648 710.838 87.5394 656.329 135.392 469.508C223.829 287.29 388.353 150.92 582.794 103.95C577.163 142.626 557.159 163.801 504.206 202.703C492.72 211.06 453.305 221.295 423.757 235.059C339.602 274.248 427.976 334.693 487.907 287.21C526.568 256.554 573.169 206.841 674.488 245.133C860.266 315.363 542.561 355.355 691.235 395.732C741.318 409.287 688.717 459.064 649.688 465.658C626.571 469.588 514.873 535.503 550.71 579.585C569.014 602.108 444.499 667.879 467.823 748.248C485.822 810.168 439.317 850.545 384.647 760.552C291.236 606.985 116.045 933.064 320.416 892.478C383.316 879.95 495.014 850.914 392.267 932.695C302.417 1004.26 429.756 1004.91 429.756 1051.66C429.756 1105.51 458.503 1116.92 506.933 1124.02C600.488 1137.72 559.983 1084.69 718.57 1137.35C773.08 1155.51 825.681 1111.8 904.638 1149.88C992.498 1192.33 975.093 1086.77 1061.61 1189.44C1078.64 1209.59 1129.16 1208.77 1176.64 1206.77C1049.75 1343.95 869.539 1427.58 674.344 1421.29C641.971 1420.25 610.353 1416.69 579.537 1410.99ZM1060.19 179.362C1142.12 230.39 1211.31 300.172 1262.64 382.85C1229.16 400.175 1191.69 425.441 1173.24 387.358C1155.83 351.441 1170.42 283.135 1150.8 278.916C1091.15 266.035 1065.31 220.172 1060.19 179.362Z" fill="#64C200"/>
<path fill-rule="evenodd" clip-rule="evenodd" d="M816.489 329.881C872.121 485.068 738.943 477.801 682.429 540.845C630.277 598.916 698.053 713.213 797.752 643.367C817.307 629.652 860.202 633.213 901.381 631.577C996.797 627.662 1013.67 504.318 979.969 418.688C923.005 274.329 755.161 158.54 816.489 329.881ZM1204.28 463.588C1098.79 428.553 1091.46 514.761 1188.05 566.688C1211.45 579.281 1206.49 605.364 1212.8 625.802C1227.24 672.098 1298.64 668.248 1274.21 558.106C1264.71 515.659 1240.71 475.651 1204.28 463.588Z" fill="#21B9FF"/>
</g>
<defs>
<clipPath id="clip0_16_1081">
<rect width="1540" height="1540" fill="white"/>
</clipPath>
</defs>
</svg>
