<svg xmlns="http://www.w3.org/2000/svg" xmlns:xlink="http://www.w3.org/1999/xlink" width="500" zoomAndPan="magnify" viewBox="0 0 375 374.999991" height="500" preserveAspectRatio="xMidYMid meet" version="1.0"><defs><clipPath id="983f20d7bb"><path d="M 92 22.914062 L 200 22.914062 L 200 173 L 92 173 Z M 92 22.914062 " clip-rule="nonzero"/></clipPath></defs><path fill="#ffffff" d="M 334.390625 255.484375 C 335.757812 254.433594 337 253.230469 338.113281 251.914062 C 339.21875 250.59375 340.25 249.195312 341.09375 247.679688 C 344.574219 241.644531 345.800781 234.378906 345.386719 227.324219 C 345.195312 223.78125 344.628906 220.269531 343.789062 216.855469 C 343.378906 215.140625 342.867188 213.464844 342.339844 211.804688 C 342.054688 210.976562 341.769531 210.15625 341.488281 209.335938 C 341.175781 208.550781 340.871094 207.761719 340.566406 206.980469 L 340.339844 206.398438 L 340.066406 205.777344 C 339.890625 205.359375 339.707031 204.945312 339.53125 204.53125 C 339.351562 204.117188 339.171875 203.707031 338.996094 203.296875 L 338.496094 202.214844 C 337.785156 200.671875 337.027344 199.171875 336.238281 197.703125 C 335.957031 197.175781 335.667969 196.660156 335.375 196.140625 C 333.328125 111.375 243.324219 117.847656 243.324219 117.847656 L 243.34375 117.875 L 243.324219 117.851562 C 243.378906 117.933594 249.277344 126.894531 257.34375 149.851562 C 273.160156 194.859375 308.824219 197.394531 330.402344 209.019531 C 319.941406 179.617188 270.25 136.246094 270.25 136.246094 C 270.25 136.246094 316.347656 165.566406 333.320312 199.695312 L 333.554688 200.230469 C 333.722656 200.644531 333.890625 201.0625 334.058594 201.480469 C 334.226562 201.898438 334.398438 202.316406 334.566406 202.734375 L 334.824219 203.363281 L 335.039062 203.953125 C 335.324219 204.746094 335.613281 205.535156 335.898438 206.332031 C 336.164062 207.15625 336.429688 207.984375 336.695312 208.816406 C 337.183594 210.488281 337.652344 212.183594 338.027344 213.898438 C 338.785156 217.332031 339.273438 220.859375 339.378906 224.402344 C 339.628906 231.464844 338.226562 238.703125 334.609375 244.652344 C 333.726562 246.148438 332.667969 247.519531 331.53125 248.8125 C 330.382812 250.101562 329.113281 251.28125 327.722656 252.296875 C 326.339844 253.320312 324.855469 254.210938 323.285156 254.945312 C 321.714844 255.664062 320.058594 256.210938 318.351562 256.597656 C 314.949219 257.390625 311.328125 257.398438 307.753906 256.800781 C 305.15625 256.324219 302.582031 255.5 300.089844 254.347656 C 301.363281 255.246094 302.652344 256.097656 304 256.804688 C 307.367188 258.652344 310.9375 259.886719 314.53125 260.453125 C 318.121094 260.972656 321.734375 260.875 325.125 260.003906 C 326.820312 259.578125 328.460938 258.988281 330.019531 258.234375 C 331.570312 257.460938 333.035156 256.539062 334.390625 255.484375 " fill-opacity="1" fill-rule="nonzero"/><path fill="#80cc28" d="M 201.195312 342.550781 C 202.785156 343.210938 204.457031 343.683594 206.152344 343.988281 C 207.847656 344.285156 209.570312 344.476562 211.308594 344.457031 C 218.273438 344.445312 225.183594 341.878906 231.085938 337.992188 C 234.058594 336.058594 236.820312 333.808594 239.355469 331.371094 C 240.628906 330.164062 241.832031 328.882812 243.007812 327.59375 C 243.574219 326.9375 244.148438 326.277344 244.710938 325.621094 C 245.242188 324.964844 245.769531 324.304688 246.292969 323.652344 L 246.6875 323.164062 L 247.09375 322.613281 C 247.363281 322.25 247.628906 321.890625 247.898438 321.527344 C 248.167969 321.167969 248.433594 320.804688 248.699219 320.445312 L 249.390625 319.472656 C 250.367188 318.085938 251.285156 316.675781 252.167969 315.265625 C 252.480469 314.757812 252.785156 314.242188 253.085938 313.734375 C 325.492188 269.582031 274.878906 194.878906 274.878906 194.878906 L 274.878906 194.886719 L 274.871094 194.914062 L 274.875 194.886719 C 274.832031 194.976562 270.019531 204.558594 254.167969 223.023438 C 223.09375 259.222656 238.726562 291.371094 239.445312 315.863281 C 259.683594 292.105469 272.410156 227.398438 272.410156 227.398438 C 272.410156 227.398438 270.0625 281.96875 248.984375 313.730469 L 248.636719 314.199219 C 248.359375 314.554688 248.082031 314.90625 247.804688 315.261719 C 247.53125 315.617188 247.253906 315.976562 246.972656 316.332031 L 246.558594 316.871094 L 246.152344 317.347656 C 245.613281 317.988281 245.070312 318.636719 244.523438 319.285156 C 243.941406 319.921875 243.359375 320.566406 242.769531 321.210938 C 241.570312 322.476562 240.335938 323.726562 239.03125 324.910156 C 236.4375 327.28125 233.625 329.46875 230.609375 331.328125 C 224.621094 335.078125 217.648438 337.480469 210.6875 337.324219 C 208.949219 337.308594 207.230469 337.078125 205.542969 336.738281 C 203.851562 336.394531 202.195312 335.882812 200.621094 335.1875 C 199.039062 334.5 197.53125 333.660156 196.113281 332.667969 C 194.699219 331.664062 193.398438 330.503906 192.210938 329.222656 C 189.820312 326.667969 188.003906 323.542969 186.738281 320.144531 C 185.847656 317.664062 185.277344 315.015625 185.027344 312.285156 C 184.886719 313.835938 184.792969 315.378906 184.855469 316.898438 C 184.9375 320.738281 185.65625 324.449219 186.960938 327.839844 C 188.308594 331.207031 190.195312 334.289062 192.648438 336.792969 C 193.863281 338.042969 195.195312 339.171875 196.625 340.140625 C 198.066406 341.101562 199.597656 341.90625 201.195312 342.550781 " fill-opacity="1" fill-rule="nonzero"/><path fill="#ffffff" d="M 59.179688 270.757812 C 59.402344 272.464844 59.828125 274.144531 60.414062 275.765625 C 61 277.386719 61.699219 278.972656 62.585938 280.464844 C 66.078125 286.492188 71.757812 291.191406 78.078125 294.355469 C 81.238281 295.964844 84.558594 297.230469 87.9375 298.210938 C 89.628906 298.707031 91.335938 299.105469 93.039062 299.480469 C 93.898438 299.648438 94.753906 299.8125 95.605469 299.976562 C 96.441406 300.101562 97.273438 300.230469 98.101562 300.355469 L 98.71875 300.453125 L 99.394531 300.53125 C 99.847656 300.578125 100.296875 300.628906 100.742188 300.683594 C 101.191406 300.734375 101.636719 300.785156 102.082031 300.839844 L 103.269531 300.949219 C 104.957031 301.101562 106.640625 301.191406 108.304688 301.253906 C 108.898438 301.265625 109.496094 301.273438 110.089844 301.28125 C 184.53125 341.890625 223.929688 260.722656 223.929688 260.722656 L 223.902344 260.726562 L 223.925781 260.722656 C 223.828125 260.726562 213.121094 261.355469 189.203125 256.859375 C 142.308594 248.054688 122.28125 277.664062 101.425781 290.53125 C 132.117188 296.179688 194.535156 274.835938 194.535156 274.835938 C 194.535156 274.835938 146.089844 300.09375 108.039062 297.722656 L 107.457031 297.65625 C 107.011719 297.597656 106.566406 297.535156 106.121094 297.46875 C 105.675781 297.410156 105.230469 297.347656 104.78125 297.285156 L 104.105469 297.191406 L 103.488281 297.082031 C 102.660156 296.9375 101.832031 296.789062 101 296.644531 C 100.15625 296.457031 99.304688 296.273438 98.449219 296.089844 C 96.753906 295.675781 95.054688 295.234375 93.382812 294.695312 C 90.027344 293.636719 86.730469 292.296875 83.609375 290.613281 C 77.367188 287.300781 71.796875 282.46875 68.453125 276.363281 C 67.597656 274.851562 66.9375 273.246094 66.386719 271.613281 C 65.84375 269.976562 65.457031 268.289062 65.273438 266.578125 C 65.078125 264.867188 65.050781 263.136719 65.195312 261.414062 C 65.363281 259.691406 65.714844 257.980469 66.234375 256.3125 C 67.246094 252.96875 69.046875 249.832031 71.355469 247.035156 C 73.066406 245.019531 75.070312 243.207031 77.3125 241.625 C 75.898438 242.273438 74.511719 242.964844 73.230469 243.785156 C 69.949219 245.769531 67.09375 248.25 64.804688 251.074219 C 62.558594 253.925781 60.835938 257.101562 59.898438 260.476562 C 59.417969 262.152344 59.109375 263.871094 58.984375 265.59375 C 58.875 267.324219 58.945312 269.054688 59.179688 270.757812 " fill-opacity="1" fill-rule="nonzero"/><path fill="#80cc28" d="M 50.359375 111.894531 C 48.992188 112.941406 47.75 114.148438 46.636719 115.464844 C 45.53125 116.785156 44.5 118.179688 43.65625 119.699219 C 40.175781 125.734375 38.949219 133 39.367188 140.054688 C 39.554688 143.59375 40.121094 147.109375 40.960938 150.523438 C 41.371094 152.230469 41.882812 153.914062 42.410156 155.574219 C 42.695312 156.402344 42.980469 157.222656 43.261719 158.039062 C 43.574219 158.828125 43.878906 159.613281 44.183594 160.390625 L 44.410156 160.976562 L 44.683594 161.601562 C 44.859375 162.019531 45.042969 162.433594 45.21875 162.847656 C 45.398438 163.253906 45.578125 163.667969 45.753906 164.078125 L 46.253906 165.164062 C 46.964844 166.707031 47.722656 168.203125 48.511719 169.675781 C 48.792969 170.203125 49.082031 170.71875 49.375 171.238281 C 51.421875 256.003906 141.425781 249.53125 141.425781 249.53125 L 141.40625 249.503906 L 141.425781 249.519531 C 141.371094 249.445312 135.472656 240.484375 127.40625 217.527344 C 111.589844 172.519531 75.925781 169.984375 54.347656 158.359375 C 64.808594 187.761719 114.5 231.132812 114.5 231.132812 C 114.5 231.132812 68.402344 201.8125 51.429688 167.683594 L 51.195312 167.140625 C 51.027344 166.730469 50.859375 166.316406 50.691406 165.898438 C 50.523438 165.480469 50.351562 165.058594 50.183594 164.640625 L 49.925781 164.015625 L 49.710938 163.417969 C 49.425781 162.632812 49.136719 161.84375 48.851562 161.046875 C 48.585938 160.21875 48.320312 159.390625 48.054688 158.558594 C 47.5625 156.886719 47.097656 155.195312 46.722656 153.476562 C 45.964844 150.046875 45.476562 146.519531 45.371094 142.976562 C 45.121094 135.914062 46.523438 128.675781 50.140625 122.726562 C 51.023438 121.230469 52.082031 119.855469 53.226562 118.5625 C 54.367188 117.273438 55.632812 116.09375 57.027344 115.078125 C 58.40625 114.058594 59.894531 113.164062 61.464844 112.433594 C 63.035156 111.714844 64.691406 111.164062 66.398438 110.777344 C 69.800781 109.984375 73.421875 109.976562 76.996094 110.578125 C 79.59375 111.046875 82.167969 111.878906 84.660156 113.03125 C 83.386719 112.128906 82.097656 111.273438 80.75 110.574219 C 77.382812 108.722656 73.8125 107.488281 70.21875 106.925781 C 66.628906 106.40625 63.015625 106.5 59.625 107.375 C 57.929688 107.800781 56.289062 108.386719 54.730469 109.144531 C 53.179688 109.910156 51.71875 110.839844 50.359375 111.894531 " fill-opacity="1" fill-rule="nonzero"/><g clip-path="url(#983f20d7bb)"><path fill="#ffffff" d="M 183.554688 24.824219 C 181.964844 24.164062 180.292969 23.691406 178.597656 23.390625 C 176.902344 23.085938 175.179688 22.894531 173.441406 22.921875 C 166.476562 22.933594 159.566406 25.5 153.664062 29.386719 C 150.691406 31.320312 147.9375 33.566406 145.394531 36 C 144.121094 37.214844 142.921875 38.492188 141.742188 39.785156 C 141.175781 40.441406 140.601562 41.101562 140.039062 41.757812 C 139.507812 42.414062 138.980469 43.070312 138.457031 43.722656 L 138.0625 44.214844 L 137.660156 44.761719 C 137.386719 45.125 137.121094 45.488281 136.851562 45.851562 C 136.582031 46.210938 136.316406 46.574219 136.050781 46.933594 L 135.359375 47.90625 C 134.382812 49.289062 133.464844 50.699219 132.582031 52.113281 C 132.269531 52.621094 131.964844 53.132812 131.664062 53.644531 C 59.261719 97.796875 109.871094 172.492188 109.871094 172.492188 L 109.878906 172.464844 L 109.875 172.488281 C 109.917969 172.402344 114.730469 162.820312 130.582031 144.355469 C 161.65625 108.15625 146.023438 76.007812 145.304688 51.515625 C 125.066406 75.269531 112.339844 139.980469 112.339844 139.980469 C 112.339844 139.980469 114.6875 85.410156 135.765625 53.648438 L 136.113281 53.175781 C 136.390625 52.824219 136.667969 52.46875 136.945312 52.117188 C 137.21875 51.761719 137.496094 51.402344 137.777344 51.046875 L 138.191406 50.507812 L 138.597656 50.023438 C 139.136719 49.386719 139.679688 48.742188 140.226562 48.09375 C 140.808594 47.453125 141.394531 46.8125 141.980469 46.160156 C 143.179688 44.902344 144.414062 43.652344 145.71875 42.46875 C 148.3125 40.09375 151.125 37.910156 154.140625 36.050781 C 160.128906 32.300781 167.101562 29.894531 174.066406 30.054688 C 175.800781 30.070312 177.519531 30.300781 179.207031 30.640625 C 180.898438 30.984375 182.554688 31.496094 184.128906 32.191406 C 185.710938 32.878906 187.21875 33.71875 188.636719 34.710938 C 190.050781 35.710938 191.351562 36.875 192.539062 38.15625 C 194.929688 40.707031 196.746094 43.832031 198.011719 47.230469 C 198.902344 49.714844 199.472656 52.363281 199.722656 55.09375 C 199.863281 53.542969 199.957031 51.996094 199.894531 50.480469 C 199.8125 46.636719 199.09375 42.929688 197.789062 39.539062 C 196.441406 36.167969 194.554688 33.085938 192.101562 30.585938 C 190.886719 29.335938 189.554688 28.207031 188.125 27.238281 C 186.683594 26.277344 185.148438 25.472656 183.554688 24.824219 " fill-opacity="1" fill-rule="nonzero"/></g><path fill="#80cc28" d="M 325.570312 96.621094 C 325.347656 94.914062 324.921875 93.234375 324.335938 91.613281 C 323.75 89.992188 323.050781 88.40625 322.164062 86.914062 C 318.671875 80.886719 312.992188 76.1875 306.671875 73.023438 C 303.511719 71.414062 300.191406 70.148438 296.8125 69.167969 C 295.121094 68.667969 293.414062 68.265625 291.710938 67.894531 C 290.851562 67.730469 289.996094 67.566406 289.144531 67.402344 C 288.308594 67.277344 287.476562 67.148438 286.648438 67.023438 L 286.03125 66.921875 L 285.355469 66.847656 C 284.902344 66.800781 284.453125 66.746094 284.007812 66.695312 C 283.558594 66.644531 283.113281 66.589844 282.667969 66.539062 L 281.480469 66.429688 C 279.792969 66.277344 278.109375 66.183594 276.445312 66.125 C 275.851562 66.113281 275.253906 66.101562 274.660156 66.097656 C 200.21875 25.480469 160.820312 106.65625 160.820312 106.65625 L 160.820312 106.652344 L 160.851562 106.648438 L 160.824219 106.65625 C 160.921875 106.648438 171.628906 106.023438 195.546875 110.515625 C 242.441406 119.324219 262.46875 89.714844 283.324219 76.839844 C 252.632812 71.199219 190.214844 92.535156 190.214844 92.535156 C 190.214844 92.535156 238.660156 67.28125 276.710938 69.652344 L 277.292969 69.722656 C 277.738281 69.78125 278.183594 69.84375 278.628906 69.90625 C 279.074219 69.96875 279.519531 70.03125 279.96875 70.09375 L 280.644531 70.183594 L 281.261719 70.292969 C 282.089844 70.441406 282.917969 70.589844 283.75 70.734375 C 284.59375 70.921875 285.449219 71.105469 286.300781 71.289062 C 287.996094 71.699219 289.695312 72.140625 291.367188 72.679688 C 294.722656 73.742188 298.019531 75.082031 301.140625 76.761719 C 307.382812 80.078125 312.953125 84.90625 316.296875 91.015625 C 317.152344 92.527344 317.8125 94.132812 318.363281 95.765625 C 318.90625 97.402344 319.292969 99.085938 319.476562 100.800781 C 319.671875 102.511719 319.699219 104.242188 319.554688 105.960938 C 319.386719 107.6875 319.035156 109.394531 318.515625 111.066406 C 317.503906 114.410156 315.703125 117.542969 313.394531 120.339844 C 311.683594 122.355469 309.679688 124.171875 307.4375 125.753906 C 308.851562 125.101562 310.238281 124.40625 311.519531 123.59375 C 314.800781 121.601562 317.664062 119.125 319.945312 116.296875 C 322.191406 113.449219 323.914062 110.273438 324.851562 106.902344 C 325.332031 105.222656 325.640625 103.507812 325.769531 101.777344 C 325.875 100.054688 325.804688 98.324219 325.570312 96.621094 " fill-opacity="1" fill-rule="nonzero"/></svg>