<svg xmlns="http://www.w3.org/2000/svg" xmlns:xlink="http://www.w3.org/1999/xlink" width="500" zoomAndPan="magnify" viewBox="0 0 375 374.999991" height="500" preserveAspectRatio="xMidYMid meet" version="1.0"><defs><clipPath id="4704dd4a51"><path d="M 7.300781 14.597656 L 368.050781 14.597656 L 368.050781 375 L 7.300781 375 Z M 7.300781 14.597656 " clip-rule="nonzero"/></clipPath><clipPath id="d51bfbb556"><path d="M 32 20 L 368.050781 20 L 368.050781 375 L 32 375 Z M 32 20 " clip-rule="nonzero"/></clipPath></defs><g clip-path="url(#4704dd4a51)"><path fill="#006999" d="M 187.675781 14.597656 C 287.296875 14.597656 368.050781 95.351562 368.050781 194.972656 C 368.050781 294.59375 287.296875 375.347656 187.675781 375.347656 C 88.054688 375.347656 7.300781 294.59375 7.300781 194.972656 C 7.300781 95.351562 88.054688 14.597656 187.675781 14.597656 Z M 187.675781 14.597656 " fill-opacity="1" fill-rule="evenodd"/></g><path fill="#0399de" d="M 183.292969 21.039062 C 270.269531 23.835938 336.519531 98.871094 331.253906 188.644531 C 325.984375 278.398438 251.203125 348.886719 164.207031 346.09375 C 77.214844 343.277344 10.960938 268.261719 16.226562 178.488281 C 21.496094 88.734375 96.296875 18.242188 183.292969 21.039062 Z M 183.292969 21.039062 " fill-opacity="1" fill-rule="evenodd"/><g clip-path="url(#d51bfbb556)"><path fill="#519c00" d="M 185.277344 375.3125 C 182.261719 354.425781 161.269531 354.914062 149.796875 348.761719 C 146.53125 347.011719 143.664062 345.28125 141.121094 343.585938 C 148.625 344.972656 156.324219 345.839844 164.207031 346.09375 C 211.738281 347.625 255.621094 327.261719 286.519531 293.855469 C 287.421875 293.820312 288.304688 293.765625 289.191406 293.730469 C 308.039062 292.882812 308.652344 300.621094 293.898438 313.535156 C 269.871094 334.546875 257.351562 327.605469 251.058594 363.878906 C 231.34375 371.289062 209.988281 375.347656 187.675781 375.347656 C 186.882812 375.347656 186.085938 375.332031 185.277344 375.3125 Z M 32.96875 114.328125 C 34.734375 107.421875 37.078125 99.773438 40.164062 91.148438 C 64.425781 56.753906 100.410156 31.210938 142.308594 20.351562 C 142.257812 22.140625 142.128906 23.78125 141.914062 25.3125 C 94.566406 36.75 54.503906 69.957031 32.96875 114.328125 Z M 260.203125 29.785156 C 323.695312 57.707031 368.050781 121.148438 368.050781 194.972656 C 368.050781 201.449219 367.707031 207.851562 367.039062 214.167969 C 343.734375 196.433594 323.625 131.300781 323.625 106.574219 C 323.625 86.460938 316.066406 88.769531 307.460938 93.226562 C 294.960938 73.09375 278.113281 56.101562 258.164062 43.675781 C 257.460938 38.136719 258.328125 32.980469 260.203125 29.785156 Z M 260.203125 29.785156 " fill-opacity="1" fill-rule="evenodd"/></g><path fill="#64c200" d="M 141.121094 343.585938 C 100.515625 316.367188 147.558594 295.40625 128.203125 285.539062 C 123.820312 283.304688 115.6875 288.371094 89.082031 272.625 C 79.144531 266.761719 86.574219 256.375 74.328125 250.636719 C 49.921875 239.21875 40.234375 251.105469 38.144531 218.441406 C 35.222656 173.09375 21.316406 159.820312 32.96875 114.328125 C 54.503906 69.957031 94.566406 36.75 141.914062 25.3125 C 140.542969 34.730469 135.671875 39.886719 122.777344 49.359375 C 119.980469 51.394531 110.382812 53.886719 103.1875 57.238281 C 82.695312 66.78125 104.214844 81.5 118.808594 69.9375 C 128.222656 62.472656 139.570312 50.367188 164.242188 59.691406 C 209.480469 76.792969 132.117188 86.53125 168.320312 96.363281 C 180.515625 99.664062 167.707031 111.785156 158.203125 113.390625 C 152.574219 114.347656 125.375 130.398438 134.101562 141.132812 C 138.558594 146.617188 108.238281 162.632812 113.917969 182.203125 C 118.300781 197.28125 106.976562 207.113281 93.664062 185.199219 C 70.917969 147.804688 28.257812 227.207031 78.023438 217.324219 C 93.339844 214.273438 120.539062 207.203125 95.519531 227.117188 C 73.640625 244.542969 104.648438 244.703125 104.648438 256.085938 C 104.648438 269.199219 111.648438 271.976562 123.441406 273.707031 C 146.222656 277.042969 136.359375 264.128906 174.976562 276.953125 C 188.25 281.375 201.058594 270.730469 220.285156 280.003906 C 241.679688 290.339844 237.441406 264.636719 258.507812 289.636719 C 262.65625 294.542969 274.957031 294.34375 286.519531 293.855469 C 255.621094 327.261719 211.738281 347.625 164.207031 346.09375 C 156.324219 345.839844 148.625 344.972656 141.121094 343.585938 Z M 258.164062 43.675781 C 278.113281 56.101562 294.960938 73.09375 307.460938 93.226562 C 299.308594 97.445312 290.183594 103.597656 285.691406 94.324219 C 281.453125 85.578125 285.003906 68.945312 280.226562 67.917969 C 265.703125 64.78125 259.410156 53.613281 258.164062 43.675781 Z M 258.164062 43.675781 " fill-opacity="1" fill-rule="evenodd"/><path fill="#21b9ff" d="M 198.820312 80.328125 C 212.367188 118.117188 179.9375 116.347656 166.175781 131.699219 C 153.476562 145.839844 169.980469 173.671875 194.257812 156.664062 C 199.019531 153.324219 209.464844 154.191406 219.492188 153.792969 C 242.726562 152.839844 246.835938 122.804688 238.628906 101.953125 C 224.757812 66.800781 183.886719 38.605469 198.820312 80.328125 Z M 293.25 112.886719 C 267.5625 104.355469 265.777344 125.347656 289.296875 137.992188 C 294.996094 141.058594 293.789062 147.410156 295.324219 152.386719 C 298.839844 163.660156 316.226562 162.722656 310.277344 135.902344 C 307.964844 125.566406 302.121094 115.824219 293.25 112.886719 Z M 293.25 112.886719 " fill-opacity="1" fill-rule="evenodd"/></svg>